<svg xmlns="http://www.w3.org/2000/svg" viewBox="0 0 24 24" fill="currentColor">
  <path d="M12 2C6.48 2 2 6.48 2 12s4.48 10 10 10 10-4.48 10-10S17.52 2 12 2zm4.64 14.5c-.17.3-.52.39-.83.22-2.27-1.4-5.13-1.71-8.5-.94-.33.08-.67-.08-.75-.41-.08-.34.08-.67.41-.75 3.68-.84 6.82-.48 9.37 1.08.31.18.4.53.22.83zm1.18-2.62c-.21.38-.66.5-1.04.3-2.6-1.6-6.56-2.07-9.64-1.13-.41.12-.85-.11-.97-.52-.12-.41.11-.85.52-.97 3.52-1.07 7.95-.55 10.83 1.28.38.23.5.67.3 1.04zm.1-2.73C14.98 9 8.74 8.8 5.1 10.02c-.49.15-1.01-.13-1.16-.62-.15-.5.13-1.01.62-1.16 4.2-1.4 11.1-1.13 15.44 1.3.43.25.57.81.32 1.24-.25.43-.81.57-1.24.32z"/>
</svg>
